<svg width="512" height="512" viewBox="0 0 512 512" fill="none" xmlns="http://www.w3.org/2000/svg">
<path d="M256 8C119.3 8 8 119.3 8 256C8 392.7 119.3 504 256 504C392.7 504 504 392.7 504 256C504 119.3 392.7 8 256 8ZM419.1 122.4C448.6 158.45 466.47 204.36 466.93 253.5C459.946 252.023 389.91 237.82 319.43 246.682C313.678 232.642 308.25 220.292 300.81 205.072C379.13 173.092 414.61 127.592 419.11 121.552L419.1 122.4ZM396.4 97.87C392.59 103.297 360.7 146.16 285.4 174.39C250.69 110.61 212.22 58.19 206.36 50.39C273.54 34.2 343.46 51.66 396.46 97.88L396.4 97.87ZM165.9 64.62C171.485 72.279 209.34 124.74 244.44 187.12C145.35 213.43 58.04 213.05 48.64 212.93C62.38 147.2 106.7 92.57 165.9 64.62V64.62ZM44.17 256.3C44.17 254.134 44.213 251.978 44.278 249.827C53.546 250.017 156.178 251.34 261.978 219.677C268.042 231.547 273.838 243.597 279.148 255.627C202.548 277.207 132.948 339.157 98.648 397.927C64.79 360.4 44.17 310.7 44.17 256.3ZM125.98 423.4C148.11 378.17 208.16 319.8 293.58 290.6C323.32 367.88 335.62 432.7 338.77 451.2C270.66 480.21 188.77 472.25 125.97 423.32L125.98 423.4ZM374.38 431.889C372.209 418.999 360.93 356.989 333.23 280.889C399.61 270.259 457.93 287.657 465.13 289.944C455.688 348.884 421.86 399.744 374.34 431.044L374.38 431.889Z" fill="#EA4C89"/>
</svg>
