<svg width="24" height="24" viewBox="0 0 24 24" fill="none" xmlns="http://www.w3.org/2000/svg">
<path d="M20.9999 13C20.7347 13 20.4804 13.1053 20.2928 13.2929C20.1053 13.4804 19.9999 13.7347 19.9999 14V19.9999H3.99999V3.99999H9.99996C10.2652 3.99999 10.5195 3.89464 10.7071 3.7071C10.8946 3.51956 11 3.26521 11 3C11 2.73478 10.8946 2.48043 10.7071 2.29289C10.5195 2.10536 10.2652 2 9.99996 2H3C2.73478 2 2.48043 2.10536 2.29289 2.29289C2.10536 2.48043 2 2.73478 2 3V20.9999C2 21.2651 2.10536 21.5195 2.29289 21.707C2.48043 21.8946 2.73478 21.9999 3 21.9999H20.9999C21.2651 21.9999 21.5195 21.8946 21.707 21.707C21.8946 21.5195 21.9999 21.2651 21.9999 20.9999V14C21.9999 13.7347 21.8946 13.4804 21.707 13.2929C21.5195 13.1053 21.2651 13 20.9999 13Z" fill="#4299E1"/>
<path d="M21.382 2.077C21.2609 2.02678 21.1312 2.00063 21 2H16.0001C15.7348 2 15.4805 2.10536 15.293 2.29289C15.1054 2.48043 15.0001 2.73478 15.0001 3C15.0001 3.26521 15.1054 3.51956 15.293 3.7071C15.4805 3.89464 15.7348 3.99999 16.0001 3.99999H18.5861L11.2931 11.293C11.1976 11.3852 11.1214 11.4956 11.069 11.6176C11.0166 11.7396 10.989 11.8708 10.9878 12.0036C10.9867 12.1363 11.012 12.268 11.0623 12.3909C11.1125 12.5138 11.1868 12.6255 11.2807 12.7193C11.3746 12.8132 11.4862 12.8875 11.6091 12.9378C11.732 12.9881 11.8637 13.0134 11.9965 13.0122C12.1293 13.0111 12.2605 12.9835 12.3825 12.9311C12.5045 12.8786 12.6148 12.8025 12.7071 12.707L20 5.41399V7.99997C20 8.26519 20.1054 8.51954 20.2929 8.70708C20.4805 8.89461 20.7348 8.99997 21 8.99997C21.2653 8.99997 21.5196 8.89461 21.7071 8.70708C21.8947 8.51954 22 8.26519 22 7.99997V3C21.9998 2.80229 21.941 2.60908 21.831 2.4448C21.721 2.28052 21.5648 2.15252 21.382 2.077V2.077Z" fill="#4299E1"/>
</svg>
