<svg width="448" height="512" viewBox="0 0 448 512" fill="none" xmlns="http://www.w3.org/2000/svg">
<g clip-path="url(#clip0_1132_114628)">
<path d="M100.3 448H7.4V148.9H100.28L100.3 448ZM53.79 108.1C24.09 108.1 0 83.5 0 53.8C0 39.5314 5.6682 25.8471 15.7577 15.7577C25.8471 5.6682 39.5314 0 53.8 0C68.0686 0 81.7529 5.6682 91.8423 15.7577C101.932 25.8471 107.6 39.5314 107.6 53.8C107.6 83.5 83.5 108.1 53.81 108.1H53.79ZM447.9 448H355.22V302.4C355.22 267.7 354.52 223.2 306.93 223.2C258.64 223.2 251.24 260.9 251.24 299.9V448H158.46V148.9H247.54V189.7H248.84C261.24 166.2 291.53 141.4 336.72 141.4C430.72 141.4 448.02 203.3 448.02 283.7V448H447.9Z" fill="#0274B3"/>
</g>
<defs>
<clipPath id="clip0_1132_114628">
<rect width="448" height="512" fill="white"/>
</clipPath>
</defs>
</svg>
