<svg width="512" height="512" viewBox="0 0 512 512" fill="none" xmlns="http://www.w3.org/2000/svg">
<g clip-path="url(#clip0_1132_114630)">
<path d="M459.4 151.7C459.725 156.248 459.725 160.797 459.725 165.35C459.725 304.05 354.125 463.95 161.125 463.95C101.675 463.95 46.4249 446.73 0.0249023 416.84C8.4719 417.814 16.5949 418.139 25.3649 418.139C74.4249 418.139 119.575 401.569 155.665 373.309C109.535 372.334 70.8749 342.119 57.5549 300.539C64.0529 301.513 70.5449 302.163 77.3749 302.163C86.7959 302.163 96.2149 300.863 104.985 298.59C56.9049 288.843 20.8449 246.61 20.8449 196.49V195.191C34.8149 202.988 51.0549 207.861 68.2749 208.511C40.0149 189.671 21.4949 157.501 21.4949 121.121C21.4949 101.631 26.6919 83.7608 35.7849 68.1708C87.4349 131.841 165.085 173.471 252.185 177.971C250.561 170.174 249.586 162.051 249.586 153.931C249.586 96.1008 296.366 49.0308 354.486 49.0308C384.696 49.0308 411.986 61.7008 431.156 82.1708C454.876 77.6228 477.616 68.8508 497.756 56.8308C489.958 81.2008 473.386 101.661 451.626 114.661C472.746 112.388 493.206 106.539 512.056 98.4208C497.766 119.211 479.896 137.731 459.426 152.671L459.4 151.7Z" fill="#1D9BF0"/>
</g>
<defs>
<clipPath id="clip0_1132_114630">
<rect width="512" height="512" fill="white"/>
</clipPath>
</defs>
</svg>
