<svg width="32" height="32" viewBox="0 0 32 32" fill="none" xmlns="http://www.w3.org/2000/svg">
<g clip-path="url(#clip0_136_2887)">
<mask id="mask0_136_2887" style="mask-type:luminance" maskUnits="userSpaceOnUse" x="-1" y="0" width="34" height="34">
<path d="M-0.835449 0H32.8353V33.4211H-0.835449V0Z" fill="white"/>
</mask>
<g mask="url(#mask0_136_2887)">
<path opacity="0.53" d="M31.3567 17.2416C31.356 19.1833 30.9584 21.1046 30.188 22.8894C29.4098 24.689 28.2781 26.3167 26.859 27.6773C25.4232 29.0544 23.7311 30.1409 21.8771 30.8764C20.0083 31.6193 18.0136 32.0006 16.0005 32C13.9874 32.0006 11.9927 31.6193 10.1239 30.8764C8.26994 30.1409 6.57784 29.0544 5.14203 27.6773C3.72302 26.3167 2.59142 24.689 1.81334 22.8894C1.04282 21.1046 0.645114 19.1833 0.644287 17.2416C0.644287 13.3273 2.26217 9.57377 5.14203 6.80584C8.02188 4.03791 11.928 2.48315 16.0005 2.48315C18.017 2.48315 20.0141 2.86516 21.8771 3.60677C23.7311 4.34221 25.4232 5.42877 26.859 6.80584C28.2781 8.16643 29.4098 9.79409 30.188 11.5937C30.9584 13.3785 31.356 15.2999 31.3567 17.2416Z" fill="black"/>
<path d="M31.9406 15.9386C31.941 18.0272 31.5289 20.0957 30.7274 22.0269C29.9276 23.9556 28.7534 25.7094 27.2718 27.1884C25.7935 28.6647 24.036 29.8367 22.1003 30.6371C20.1673 31.4367 18.0939 31.8484 15.9998 31.8483C13.9043 31.8472 11.8296 31.435 9.89519 30.6353C7.96074 29.8356 6.20464 28.6642 4.72787 27.1884C1.73567 24.1978 0.0572295 20.1534 0.0590836 15.9386C0.0572295 11.7237 1.73567 7.67936 4.72787 4.6887C6.20441 3.21269 7.96047 2.0411 9.89498 1.24136C11.8295 0.441625 13.9042 0.0295342 15.9998 0.0288086C18.0939 0.0286851 20.1673 0.440212 22.1003 1.23965C24.0361 2.04017 25.7935 3.21228 27.2718 4.6887C28.7534 6.16773 29.9276 7.92153 30.7274 9.85026C31.5289 11.7815 31.941 13.8499 31.9406 15.9386Z" fill="url(#paint0_linear_136_2887)" stroke="#CDCDCD" stroke-width="0.352" stroke-linecap="round" stroke-linejoin="round"/>
<path d="M30.6916 15.9386C30.6932 19.8231 29.1463 23.5505 26.3885 26.3068C25.0277 27.6671 23.4092 28.7469 21.6263 29.484C19.8433 30.221 17.9311 30.6008 15.9998 30.6014C14.0684 30.6008 12.1562 30.221 10.3732 29.484C8.59031 28.7469 6.97183 27.6671 5.61099 26.3068C2.85324 23.5505 1.30626 19.8231 1.30786 15.9386C1.30618 12.0539 2.85316 8.32636 5.61099 5.57001C6.97183 4.20965 8.59031 3.12987 10.3732 2.39283C12.1562 1.65578 14.0684 1.276 15.9998 1.27539C17.9311 1.276 19.8433 1.65578 21.6263 2.39283C23.4092 3.12987 25.0277 4.20965 26.3885 5.57001C29.1464 8.32636 30.6933 12.0539 30.6916 15.9386Z" fill="url(#paint1_radial_136_2887)"/>
<path d="M15.9997 2.04004C15.9715 2.04008 15.9436 2.04566 15.9175 2.05644C15.8915 2.06722 15.8678 2.083 15.8479 2.10287C15.828 2.12274 15.8123 2.1463 15.8016 2.17222C15.7909 2.19815 15.7854 2.22593 15.7856 2.25394V4.71974C15.7839 4.74866 15.7883 4.7776 15.7983 4.8048C15.8083 4.832 15.8238 4.85689 15.8439 4.87793C15.8639 4.89898 15.8881 4.91574 15.9149 4.9272C15.9417 4.93865 15.9705 4.94455 15.9997 4.94455C16.0289 4.94455 16.0578 4.93865 16.0846 4.9272C16.1114 4.91574 16.1355 4.89898 16.1556 4.87793C16.1756 4.85689 16.1911 4.832 16.2012 4.8048C16.2112 4.7776 16.2155 4.74866 16.2139 4.71974V2.25394C16.214 2.22593 16.2086 2.19815 16.1979 2.17222C16.1872 2.1463 16.1714 2.12274 16.1515 2.10287C16.1316 2.083 16.108 2.06722 16.0819 2.05644C16.0559 2.04566 16.0279 2.04008 15.9997 2.04004ZM14.5983 2.12861C14.5666 2.12555 14.5346 2.12954 14.5046 2.1403C14.4746 2.15106 14.4474 2.16831 14.4249 2.19081C14.4025 2.2133 14.3854 2.24048 14.3748 2.27036C14.3643 2.30024 14.3606 2.33208 14.364 2.36356L14.4721 3.39493C14.475 3.42269 14.4834 3.4496 14.4968 3.47414C14.5102 3.49868 14.5283 3.52037 14.5502 3.53795C14.572 3.55553 14.5971 3.56866 14.6241 3.5766C14.651 3.58455 14.6793 3.58715 14.7073 3.58425C14.7352 3.58136 14.7624 3.57303 14.7871 3.55973C14.8118 3.54644 14.8336 3.52842 14.8514 3.50674C14.8691 3.48506 14.8823 3.46014 14.8903 3.43339C14.8983 3.40663 14.9009 3.37857 14.898 3.35081L14.7903 2.31911C14.7854 2.27024 14.7636 2.22455 14.7286 2.18983C14.6936 2.1551 14.6476 2.13347 14.5983 2.12861ZM17.4109 2.12961C17.3616 2.1344 17.3155 2.156 17.2805 2.19074C17.2455 2.22548 17.2238 2.27122 17.2189 2.32011L17.1102 3.35149C17.1055 3.38006 17.1068 3.40927 17.1139 3.43734C17.121 3.46541 17.1338 3.49174 17.1515 3.51474C17.1692 3.53773 17.1914 3.55692 17.2168 3.5711C17.2423 3.58528 17.2703 3.59416 17.2993 3.59721C17.3283 3.60026 17.3576 3.5974 17.3855 3.58882C17.4133 3.58025 17.4391 3.56612 17.4613 3.54731C17.4834 3.52851 17.5015 3.50542 17.5144 3.47945C17.5273 3.45347 17.5346 3.42517 17.5361 3.39626L17.6449 2.36456C17.6483 2.33311 17.6446 2.30131 17.634 2.27146C17.6235 2.24161 17.6064 2.21446 17.584 2.19197C17.5616 2.16948 17.5345 2.1522 17.5045 2.14142C17.4746 2.13064 17.4426 2.1266 17.4109 2.12961ZM13.1589 2.33682C13.127 2.33705 13.0956 2.34435 13.0669 2.35816C13.0381 2.37196 13.0129 2.39195 12.9929 2.41666C12.973 2.44137 12.9588 2.47017 12.9515 2.50099C12.9441 2.53181 12.9438 2.56386 12.9505 2.59482L13.4623 5.00716C13.4682 5.03446 13.4794 5.06035 13.4953 5.08335C13.5113 5.10634 13.5316 5.12599 13.5552 5.14118C13.5788 5.15637 13.6052 5.1668 13.6328 5.17188C13.6605 5.17695 13.6888 5.17657 13.7163 5.17075C13.7438 5.16494 13.7699 5.15381 13.7931 5.13799C13.8163 5.12217 13.8361 5.10197 13.8514 5.07855C13.8667 5.05514 13.8772 5.02895 13.8823 5.00151C13.8874 4.97406 13.887 4.94589 13.8812 4.91859L13.3697 2.50627C13.3597 2.45822 13.3332 2.41507 13.2948 2.38418C13.2564 2.3533 13.2084 2.33657 13.1589 2.33682ZM18.8503 2.33882C18.8008 2.33851 18.7528 2.35523 18.7144 2.38612C18.6759 2.41702 18.6495 2.46019 18.6395 2.50827L18.126 4.92026C18.1141 4.97561 18.1248 5.03337 18.1557 5.08092C18.1867 5.12846 18.2353 5.16192 18.291 5.17394C18.3186 5.1798 18.3471 5.18018 18.3748 5.17506C18.4025 5.16994 18.429 5.15941 18.4526 5.14409C18.4762 5.12877 18.4965 5.10895 18.5123 5.08579C18.5282 5.06264 18.5393 5.03659 18.5449 5.00916L19.0584 2.59717C19.0651 2.56621 19.0648 2.53415 19.0576 2.50331C19.0503 2.47247 19.0361 2.44362 19.0162 2.41888C18.9963 2.39414 18.9711 2.37413 18.9424 2.36028C18.9137 2.34643 18.8822 2.33909 18.8503 2.33882ZM11.7852 2.72349C11.7498 2.72069 11.7143 2.72657 11.6819 2.74063C11.6494 2.75468 11.6209 2.77647 11.5989 2.80407C11.5769 2.83167 11.5621 2.86422 11.5559 2.89884C11.5496 2.93346 11.552 2.9691 11.5629 3.00257L11.8841 3.98915C11.9208 4.10177 12.0414 4.16294 12.1542 4.12651C12.2084 4.10878 12.2533 4.07043 12.2791 4.01987C12.3048 3.9693 12.3093 3.91065 12.2916 3.8568L11.9704 2.87055C11.9577 2.83052 11.9334 2.79514 11.9004 2.76894C11.8674 2.74274 11.8273 2.72691 11.7852 2.72349ZM20.2163 2.72384C20.1743 2.72762 20.1343 2.74358 20.1013 2.76972C20.0683 2.79586 20.0438 2.83104 20.0308 2.87089L19.7096 3.85747C19.6919 3.91128 19.6965 3.96985 19.7222 4.02033C19.7479 4.07082 19.7928 4.10913 19.8469 4.12686C19.8738 4.13554 19.902 4.13886 19.9302 4.13665C19.9583 4.13444 19.9857 4.12673 20.0108 4.11396C20.0359 4.1012 20.0582 4.08362 20.0764 4.06225C20.0946 4.04089 20.1084 4.01617 20.117 3.98949L20.4382 3.00324C20.4492 2.96978 20.4516 2.93413 20.4454 2.89949C20.4392 2.86485 20.4245 2.83227 20.4025 2.80464C20.3806 2.77701 20.3521 2.75517 20.3196 2.74108C20.2871 2.72698 20.2517 2.72107 20.2163 2.72384ZM10.4265 3.21947C10.3911 3.22033 10.3564 3.22987 10.3256 3.24723C10.2947 3.26459 10.2686 3.28924 10.2497 3.31899C10.2307 3.34874 10.2195 3.38269 10.2169 3.4178C10.2143 3.45291 10.2205 3.4881 10.235 3.52026L11.2383 5.77351C11.2496 5.79916 11.2659 5.82234 11.2863 5.84171C11.3066 5.86107 11.3307 5.87624 11.357 5.88634C11.3833 5.89644 11.4113 5.90126 11.4395 5.90053C11.4677 5.89981 11.4954 5.89355 11.5212 5.88212C11.5732 5.85896 11.6139 5.81627 11.6343 5.7634C11.6547 5.71052 11.6531 5.65177 11.6299 5.60004L10.6262 3.34679C10.6093 3.30837 10.5813 3.27576 10.5458 3.2531C10.5103 3.23044 10.4688 3.21874 10.4265 3.21947ZM21.5901 3.22716C21.5478 3.22618 21.5063 3.23774 21.4707 3.26036C21.4351 3.28299 21.4072 3.31566 21.3904 3.35416L20.3837 5.60606C20.3605 5.65775 20.3589 5.71646 20.3792 5.76933C20.3995 5.8222 20.4401 5.86491 20.4921 5.88813C20.6005 5.93659 20.7264 5.88813 20.7749 5.78018L21.7813 3.52828C21.7958 3.49613 21.8021 3.46093 21.7995 3.4258C21.797 3.39067 21.7858 3.3567 21.7669 3.32691C21.748 3.29711 21.7219 3.27242 21.6911 3.25502C21.6602 3.23762 21.6255 3.22805 21.5901 3.22716ZM9.16558 3.88554C9.12674 3.88322 9.08799 3.89138 9.05343 3.90912C9.01887 3.92687 8.98979 3.95356 8.96926 3.98637C8.94873 4.01918 8.93752 4.05687 8.93681 4.09548C8.9361 4.1341 8.94592 4.17219 8.96524 4.20572L9.48477 5.10407C9.4987 5.12839 9.51736 5.14972 9.53965 5.16684C9.56194 5.18395 9.58742 5.19651 9.61463 5.20378C9.64184 5.21105 9.67024 5.2129 9.69817 5.20921C9.72611 5.20552 9.75303 5.19636 9.77737 5.18228C9.82677 5.15385 9.86278 5.10711 9.87749 5.05234C9.8922 4.99757 9.88441 4.93926 9.85583 4.89019L9.33629 3.99216C9.31898 3.96173 9.29432 3.93604 9.26451 3.91742C9.23471 3.89881 9.20071 3.88785 9.16558 3.88554ZM22.8339 3.88554C22.7987 3.88785 22.7647 3.89881 22.7349 3.91742C22.7051 3.93604 22.6805 3.96173 22.6632 3.99216L22.1436 4.89019C22.115 4.93926 22.1072 4.99757 22.122 5.05234C22.1367 5.10711 22.1727 5.15385 22.2221 5.18228C22.2464 5.19636 22.2733 5.20552 22.3013 5.20921C22.3292 5.2129 22.3576 5.21105 22.3848 5.20378C22.412 5.19651 22.4375 5.18395 22.4598 5.16684C22.4821 5.14972 22.5007 5.12839 22.5147 5.10407L23.0342 4.20572C23.0535 4.17219 23.0634 4.1341 23.0626 4.09548C23.0619 4.05687 23.0507 4.01918 23.0302 3.98637C23.0097 3.95356 22.9806 3.92687 22.946 3.90912C22.9115 3.89138 22.8727 3.88322 22.8339 3.88554ZM7.94131 4.64755C7.90234 4.64915 7.86453 4.66119 7.83191 4.68241C7.79929 4.70363 7.77307 4.73324 7.75604 4.76807C7.73902 4.8029 7.73181 4.84167 7.73521 4.88024C7.7386 4.91881 7.75246 4.95573 7.77531 4.98711L9.22585 6.98301C9.29555 7.07893 9.42922 7.09999 9.52518 7.03047C9.57129 6.99711 9.60219 6.94694 9.61109 6.89099C9.61999 6.83504 9.60617 6.77787 9.57266 6.73202L8.12178 4.73612C8.10144 4.70768 8.07431 4.68469 8.0428 4.66923C8.0113 4.65378 7.97643 4.64632 7.94131 4.64755ZM24.0736 4.65859C24.0385 4.65723 24.0036 4.66454 23.9721 4.67988C23.9405 4.69523 23.9133 4.71811 23.8928 4.74648L22.4393 6.74071C22.4057 6.78652 22.3918 6.84367 22.4007 6.89962C22.4095 6.95557 22.4403 7.00575 22.4864 7.03916C22.5091 7.05575 22.5349 7.06768 22.5623 7.07431C22.5896 7.08094 22.6181 7.08211 22.6459 7.07776C22.6737 7.07341 22.7004 7.06363 22.7244 7.04898C22.7484 7.03432 22.7693 7.01507 22.7857 6.99237L24.2393 4.99814C24.262 4.96676 24.2758 4.92988 24.2791 4.89138C24.2825 4.85287 24.2753 4.81419 24.2583 4.77941C24.2413 4.74463 24.2152 4.71504 24.1827 4.69377C24.1502 4.67251 24.1125 4.66035 24.0736 4.65859ZM6.84667 5.56361C6.80422 5.56174 6.76216 5.57235 6.72575 5.59411C6.68935 5.61586 6.66022 5.64781 6.64203 5.68592C6.62384 5.72404 6.61738 5.76663 6.62348 5.80837C6.62958 5.85012 6.64795 5.88915 6.6763 5.92057L7.3716 6.69125C7.39032 6.71217 7.41304 6.7292 7.43845 6.74134C7.46385 6.75349 7.49142 6.7605 7.51957 6.76199C7.54773 6.76348 7.5759 6.75943 7.60246 6.75003C7.62902 6.74064 7.65344 6.7261 7.6743 6.70728C7.69533 6.68847 7.71242 6.66575 7.7246 6.64039C7.73677 6.61503 7.74379 6.58753 7.74526 6.55947C7.74673 6.53141 7.74262 6.50336 7.73316 6.47688C7.7237 6.4504 7.70907 6.42602 7.69012 6.40516L6.99482 5.63448C6.97612 5.61347 6.95339 5.59638 6.92795 5.58421C6.90251 5.57205 6.87487 5.56504 6.84667 5.56361ZM25.1541 5.56528C25.0974 5.56853 25.0443 5.59388 25.0063 5.6358L24.3107 6.40683C24.2725 6.44896 24.2527 6.5044 24.2557 6.56098C24.2587 6.61756 24.2841 6.67066 24.3265 6.70863C24.3473 6.72747 24.3717 6.74202 24.3983 6.75144C24.4248 6.76086 24.453 6.76496 24.4812 6.7635C24.5093 6.76204 24.5369 6.75505 24.5623 6.74294C24.5877 6.73082 24.6105 6.71382 24.6292 6.69292L25.3245 5.92222C25.3528 5.8908 25.3712 5.85179 25.3773 5.81005C25.3834 5.76831 25.377 5.72571 25.3588 5.68759C25.3406 5.64948 25.3114 5.61753 25.275 5.59578C25.2386 5.57402 25.1966 5.56341 25.1541 5.56528ZM5.79783 6.56926C5.75532 6.57163 5.71448 6.58643 5.68044 6.61181C5.64641 6.6372 5.62071 6.67201 5.60659 6.71187C5.59247 6.75173 5.59056 6.79485 5.60111 6.83579C5.61165 6.87673 5.63418 6.91366 5.66584 6.9419L7.5019 8.59191C7.52277 8.61073 7.54718 8.62525 7.57374 8.63464C7.6003 8.64403 7.62847 8.64811 7.65663 8.64661C7.68478 8.64512 7.71236 8.6381 7.73776 8.62595C7.76316 8.61381 7.78588 8.59677 7.80461 8.57585C7.84277 8.53372 7.86254 8.4783 7.85958 8.42172C7.85661 8.36514 7.83115 8.31204 7.78878 8.27408L5.95238 6.62407C5.91016 6.58628 5.85461 6.56658 5.79783 6.56926ZM26.2084 6.57661C26.1802 6.57505 26.1519 6.57911 26.1253 6.58852C26.0988 6.59793 26.0743 6.61251 26.0535 6.63142L24.2164 8.27975C24.1788 8.31861 24.1573 8.37014 24.1563 8.42403C24.1554 8.47791 24.1749 8.53018 24.2111 8.57038C24.2472 8.61059 24.2973 8.63576 24.3514 8.64086C24.4054 8.64597 24.4594 8.63064 24.5026 8.59792L26.34 6.94927C26.3717 6.92104 26.3942 6.88415 26.4047 6.84324C26.4153 6.80233 26.4134 6.75923 26.3993 6.71938C26.3853 6.67952 26.3596 6.64471 26.3256 6.6193C26.2916 6.59389 26.2508 6.57903 26.2084 6.57661ZM4.92542 7.68886C4.8794 7.68749 4.83416 7.70079 4.79631 7.7268C4.75846 7.75281 4.73 7.79017 4.71509 7.8334C4.70018 7.87664 4.69961 7.92346 4.71347 7.96704C4.72732 8.01061 4.75487 8.04865 4.79208 8.07556L5.63284 8.68547C5.65558 8.70202 5.6814 8.71394 5.7088 8.72052C5.7362 8.72709 5.76465 8.7282 5.79249 8.72378C5.82033 8.71937 5.84701 8.70952 5.87099 8.6948C5.89497 8.68008 5.91576 8.66078 5.93217 8.63803C5.96569 8.59218 5.97951 8.53501 5.97061 8.47906C5.96171 8.42311 5.93081 8.37294 5.8847 8.33957L5.04394 7.72964C5.00948 7.7045 4.96816 7.69028 4.92542 7.68886ZM27.0798 7.69655C27.0371 7.69817 26.9958 7.71237 26.9612 7.73733L26.1201 8.34659C26.0972 8.36309 26.0778 8.3839 26.063 8.40785C26.0482 8.4318 26.0383 8.45841 26.0339 8.48616C26.0294 8.51391 26.0306 8.54225 26.0371 8.56957C26.0437 8.59689 26.0557 8.62264 26.0723 8.64537C26.142 8.74095 26.2757 8.76234 26.3717 8.69249L27.2128 8.08357C27.2496 8.0565 27.2769 8.01847 27.2905 7.97501C27.3042 7.93155 27.3036 7.8849 27.2888 7.84181C27.274 7.79872 27.2457 7.7614 27.2082 7.73529C27.1706 7.70918 27.1256 7.69561 27.0798 7.69655ZM4.11025 8.88299C4.06424 8.8863 4.02052 8.9042 3.98551 8.93401C3.9505 8.96382 3.92606 9.004 3.91577 9.04863C3.90548 9.09326 3.90989 9.13998 3.92835 9.18194C3.94681 9.22389 3.97835 9.25886 4.01833 9.2817L6.15777 10.5146C6.20697 10.5392 6.26381 10.5442 6.31659 10.5285C6.36937 10.5128 6.41408 10.4776 6.44154 10.4302C6.469 10.3828 6.47713 10.3267 6.46424 10.2736C6.45135 10.2204 6.41843 10.1741 6.37225 10.1443L4.23248 8.91141C4.19555 8.88992 4.15295 8.88001 4.11025 8.88299ZM27.8892 8.88299C27.8465 8.88001 27.8039 8.88992 27.767 8.91141L25.6272 10.1443C25.581 10.1741 25.5481 10.2204 25.5352 10.2736C25.5223 10.3267 25.5304 10.3828 25.5579 10.4302C25.5854 10.4776 25.6301 10.5128 25.6829 10.5285C25.7356 10.5442 25.7925 10.5392 25.8417 10.5146L27.9815 9.2817C28.0215 9.25884 28.053 9.22386 28.0714 9.18187C28.0899 9.13989 28.0943 9.09313 28.0839 9.04849C28.0736 9.00384 28.0491 8.96366 28.0141 8.93387C27.979 8.90408 27.9352 8.88624 27.8892 8.88299ZM3.49408 10.1557C3.44445 10.1549 3.39607 10.1711 3.35711 10.2016C3.31815 10.2321 3.29099 10.275 3.28022 10.3231C3.26945 10.3712 3.27574 10.4215 3.29802 10.4656C3.32029 10.5096 3.3572 10.5446 3.40249 10.5648L4.35167 10.9875C4.40333 11.0075 4.46074 11.0069 4.51197 10.9859C4.5632 10.9649 4.60431 10.9251 4.62677 10.8748C4.64922 10.8245 4.65129 10.7676 4.63254 10.7158C4.61379 10.664 4.57566 10.6214 4.52609 10.5968L3.57691 10.1744C3.55095 10.1624 3.52271 10.156 3.49408 10.1557ZM28.5098 10.1647C28.481 10.1649 28.4527 10.1712 28.4266 10.1831L27.4771 10.6052C27.425 10.6283 27.3844 10.6711 27.364 10.7239C27.3436 10.7768 27.3451 10.8355 27.3683 10.8873C27.4168 10.9955 27.5427 11.044 27.6512 10.9956L28.6007 10.5738C28.6459 10.5537 28.6828 10.5187 28.705 10.4747C28.7273 10.4308 28.7337 10.3805 28.723 10.3325C28.7123 10.2845 28.6853 10.2415 28.6464 10.211C28.6076 10.1804 28.5593 10.1641 28.5098 10.1647ZM2.94457 11.4862C2.89508 11.4904 2.8486 11.5116 2.813 11.5459C2.7774 11.5803 2.75486 11.6259 2.74919 11.6749C2.74353 11.7239 2.75509 11.7733 2.78192 11.8148C2.80875 11.8563 2.8492 11.8873 2.89642 11.9026L5.24563 12.6666C5.29946 12.6823 5.35734 12.6765 5.40696 12.6506C5.45658 12.6246 5.49403 12.5804 5.51135 12.5274C5.52867 12.4744 5.5245 12.4169 5.49971 12.3669C5.47493 12.3169 5.43149 12.2785 5.37863 12.2599L3.02942 11.4959C3.00215 11.4867 2.97322 11.4834 2.94457 11.4862ZM29.0579 11.4952C29.0293 11.4925 29.0005 11.496 28.9734 11.5052L26.6235 12.2675C26.5694 12.2853 26.5245 12.3236 26.4988 12.3741C26.473 12.4246 26.4685 12.4831 26.4861 12.5369C26.5228 12.6496 26.6434 12.7107 26.7562 12.674L29.1057 11.9116C29.1529 11.8963 29.1934 11.8653 29.2202 11.8239C29.2471 11.7824 29.2587 11.733 29.253 11.684C29.2474 11.6351 29.2249 11.5895 29.1894 11.5551C29.1538 11.5207 29.1074 11.4995 29.0579 11.4952ZM2.60247 12.8825C2.55302 12.8822 2.50498 12.8989 2.46655 12.9298C2.42812 12.9607 2.40166 13.0039 2.3917 13.0519C2.37979 13.1073 2.39048 13.1651 2.4214 13.2126C2.45232 13.2601 2.50097 13.2936 2.55668 13.3056L3.5732 13.5212C3.60078 13.527 3.62926 13.5274 3.65699 13.5223C3.68472 13.5172 3.71115 13.5067 3.73475 13.4913C3.75836 13.476 3.77867 13.4562 3.79452 13.433C3.81037 13.4099 3.82143 13.3838 3.82708 13.3564C3.83306 13.329 3.83354 13.3007 3.82847 13.2732C3.82341 13.2456 3.81292 13.2193 3.79759 13.1957C3.78226 13.1722 3.7624 13.1519 3.73915 13.136C3.7159 13.1201 3.68971 13.1089 3.66209 13.1031L2.64557 12.8872C2.63142 12.8841 2.61697 12.8825 2.60247 12.8825ZM29.3977 12.8845C29.3831 12.8851 29.3686 12.8867 29.3542 12.8892L28.3377 13.1047C28.2821 13.1168 28.2335 13.1502 28.2025 13.1976C28.1716 13.2451 28.1609 13.3028 28.1727 13.3581C28.1973 13.474 28.3108 13.5476 28.4266 13.5228L29.4434 13.3073C29.4991 13.2953 29.5477 13.2619 29.5786 13.2144C29.6095 13.1669 29.6202 13.1093 29.6084 13.054C29.5985 13.0059 29.572 12.9627 29.5336 12.9318C29.4951 12.9009 29.4471 12.8842 29.3977 12.8845ZM2.34321 14.2872C2.29397 14.2921 2.24795 14.3137 2.21296 14.3484C2.17797 14.3831 2.15618 14.4288 2.15129 14.4777C2.1482 14.5055 2.15069 14.5337 2.15861 14.5606C2.16653 14.5875 2.17972 14.6126 2.19742 14.6344C2.21513 14.6563 2.237 14.6744 2.26179 14.6878C2.28657 14.7013 2.31379 14.7097 2.34186 14.7126L4.79882 14.972C4.82689 14.9749 4.85527 14.9724 4.88233 14.9644C4.9094 14.9564 4.9346 14.9432 4.95651 14.9255C4.97841 14.9079 4.99658 14.8861 5.00997 14.8614C5.02336 14.8367 5.0317 14.8097 5.03451 14.7818C5.04056 14.7256 5.0239 14.6692 4.98818 14.6251C4.95246 14.581 4.90059 14.5528 4.84393 14.5465L2.38698 14.2875C2.37245 14.2858 2.35777 14.2857 2.34321 14.2872ZM29.6583 14.3056C29.6438 14.3041 29.6293 14.3042 29.6148 14.3059L27.1575 14.5619C27.1295 14.5648 27.1022 14.5732 27.0774 14.5866C27.0526 14.6 27.0307 14.6181 27.013 14.6399C26.9953 14.6617 26.982 14.6867 26.9741 14.7136C26.9661 14.7405 26.9636 14.7687 26.9666 14.7965C26.9694 14.8244 26.9776 14.8515 26.991 14.8762C27.0043 14.9009 27.0224 14.9227 27.0443 14.9405C27.0662 14.9582 27.0914 14.9714 27.1185 14.9794C27.1455 14.9874 27.1739 14.99 27.202 14.987L29.6593 14.731C29.7159 14.7249 29.7677 14.6968 29.8035 14.6528C29.8392 14.6088 29.856 14.5526 29.8502 14.4964C29.8451 14.4476 29.8233 14.4019 29.7883 14.3672C29.7534 14.3324 29.7075 14.3107 29.6583 14.3056ZM2.3018 15.725C2.27357 15.725 2.24564 15.7306 2.21959 15.7413C2.19354 15.7521 2.16989 15.7679 2.14999 15.7878C2.1301 15.8077 2.11435 15.8312 2.10365 15.8572C2.09295 15.8831 2.08752 15.9108 2.08765 15.9388C2.08765 16.0572 2.18294 16.1527 2.3018 16.1527H3.34121C3.36943 16.1527 3.39737 16.1471 3.42342 16.1363C3.44947 16.1256 3.47312 16.1098 3.49301 16.0899C3.51291 16.07 3.52865 16.0465 3.53935 16.0206C3.55005 15.9946 3.55549 15.9669 3.55536 15.9388C3.55549 15.9108 3.55005 15.8831 3.53935 15.8572C3.52865 15.8312 3.51291 15.8077 3.49301 15.7878C3.47312 15.7679 3.44947 15.7521 3.42342 15.7413C3.39737 15.7306 3.36943 15.725 3.34121 15.725H2.3018ZM28.6582 15.725C28.63 15.725 28.6021 15.7306 28.576 15.7413C28.55 15.7521 28.5263 15.7679 28.5064 15.7878C28.4865 15.8077 28.4708 15.8312 28.4601 15.8572C28.4494 15.8831 28.444 15.9108 28.4441 15.9388C28.4441 16.0572 28.5397 16.1527 28.6582 16.1527H29.6977C29.7259 16.1527 29.7538 16.1471 29.7799 16.1363C29.8059 16.1256 29.8296 16.1098 29.8495 16.0899C29.8694 16.07 29.8851 16.0465 29.8958 16.0206C29.9065 15.9946 29.9119 15.9669 29.9118 15.9388C29.9119 15.9108 29.9065 15.8831 29.8958 15.8572C29.8851 15.8312 29.8694 15.8077 29.8495 15.7878C29.8296 15.7679 29.8059 15.7521 29.7799 15.7413C29.7538 15.7306 29.7259 15.725 29.6977 15.725H28.6582ZM4.84091 16.8904C4.82646 16.8889 4.8119 16.889 4.79747 16.8907L2.34018 17.1467C2.31211 17.1496 2.28489 17.158 2.26009 17.1714C2.23529 17.1848 2.21339 17.2029 2.19565 17.2247C2.17792 17.2465 2.16469 17.2715 2.15673 17.2984C2.14877 17.3253 2.14623 17.3535 2.14927 17.3813C2.152 17.4092 2.16027 17.4363 2.1736 17.461C2.18694 17.4857 2.20507 17.5075 2.22695 17.5252C2.24883 17.543 2.27403 17.5562 2.3011 17.5642C2.32816 17.5722 2.35655 17.5748 2.38463 17.5718L4.84192 17.3158C4.89851 17.3096 4.95035 17.2815 4.98612 17.2376C5.02189 17.1936 5.03868 17.1374 5.03283 17.0812C5.02776 17.0323 5.00593 16.9867 4.97098 16.952C4.93603 16.9172 4.8901 16.8955 4.84091 16.8904ZM27.1572 16.9057C27.108 16.9105 27.062 16.9321 27.027 16.9668C26.992 17.0014 26.9702 17.0471 26.9653 17.0959C26.9592 17.1521 26.9758 17.2084 27.0115 17.2525C27.0471 17.2966 27.0989 17.3249 27.1555 17.3312L29.6125 17.5902C29.6405 17.5932 29.6689 17.5906 29.696 17.5827C29.7231 17.5747 29.7483 17.5616 29.7703 17.5439C29.7922 17.5262 29.8103 17.5044 29.8237 17.4797C29.8371 17.455 29.8454 17.4279 29.8482 17.4C29.8512 17.3722 29.8488 17.344 29.8408 17.3171C29.8329 17.2902 29.8197 17.2651 29.802 17.2433C29.7843 17.2214 29.7624 17.2033 29.7377 17.1899C29.7129 17.1765 29.6857 17.168 29.6576 17.1651L27.2006 16.9057C27.1862 16.9048 27.1717 16.9048 27.1572 16.9057ZM3.61596 18.3499C3.60147 18.3499 3.58702 18.3514 3.57287 18.3545L2.55634 18.5701C2.50064 18.5821 2.45197 18.6154 2.42099 18.6629C2.39 18.7104 2.37923 18.7681 2.39102 18.8234C2.41594 18.9394 2.52907 19.0129 2.64524 18.9882L3.66176 18.7726C3.68937 18.7668 3.71556 18.7556 3.73881 18.7397C3.76206 18.7238 3.78192 18.7035 3.79725 18.68C3.81258 18.6564 3.82308 18.6301 3.82814 18.6026C3.8332 18.575 3.83272 18.5467 3.82674 18.5193C3.81683 18.4712 3.7904 18.428 3.75195 18.3971C3.7135 18.3662 3.66544 18.3495 3.61596 18.3499ZM28.3832 18.3519C28.3337 18.3515 28.2857 18.3683 28.2472 18.3992C28.2088 18.4301 28.1823 18.4732 28.1724 18.5213C28.1605 18.5767 28.1712 18.6344 28.2021 18.682C28.233 18.7295 28.2816 18.763 28.3374 18.775L29.3539 18.9905C29.3815 18.9964 29.4099 18.9968 29.4377 18.9917C29.4654 18.9865 29.4918 18.976 29.5154 18.9607C29.539 18.9454 29.5593 18.9256 29.5752 18.9024C29.591 18.8792 29.6021 18.8532 29.6078 18.8258C29.6197 18.7704 29.609 18.7126 29.5781 18.6651C29.5471 18.6176 29.4985 18.5841 29.4428 18.5721L28.4263 18.3565C28.4121 18.3534 28.3976 18.3519 28.3832 18.3519ZM5.32812 19.1937C5.29944 19.191 5.27051 19.1945 5.24327 19.2038L2.89373 19.9661C2.83959 19.9838 2.79473 20.0221 2.76898 20.0726C2.74324 20.1231 2.73869 20.1817 2.75635 20.2355C2.79305 20.3481 2.91326 20.4092 3.02605 20.3725L5.37593 19.6105C5.42335 19.5954 5.46402 19.5644 5.49102 19.5229C5.51803 19.4813 5.52971 19.4318 5.52407 19.3827C5.51844 19.3335 5.49584 19.2879 5.46011 19.2534C5.42439 19.219 5.37775 19.1979 5.32812 19.1937ZM26.669 19.2014C26.627 19.2053 26.5871 19.2212 26.5542 19.2474C26.5212 19.2735 26.4968 19.3087 26.4838 19.3485C26.4661 19.4023 26.4707 19.4608 26.4964 19.5113C26.5222 19.5618 26.567 19.6001 26.6212 19.6178L28.9704 20.3818C29.0241 20.397 29.0816 20.3909 29.1308 20.3649C29.1801 20.3388 29.2172 20.2947 29.2344 20.242C29.2516 20.1893 29.2475 20.132 29.223 20.0822C29.1985 20.0324 29.1555 19.9941 29.103 19.9751L26.7538 19.2114C26.7266 19.2021 26.6977 19.1987 26.669 19.2014ZM4.43147 20.8635C4.40272 20.8638 4.37437 20.8701 4.3483 20.8822L3.39879 21.3039C3.34956 21.3287 3.31179 21.3713 3.29325 21.4229C3.27471 21.4745 3.27681 21.5311 3.29913 21.5812C3.32145 21.6313 3.36229 21.671 3.41322 21.6921C3.46415 21.7132 3.52129 21.7141 3.57287 21.6946L4.52238 21.2729C4.56782 21.2529 4.60491 21.2179 4.62734 21.1739C4.64978 21.1298 4.65619 21.0795 4.64549 21.0313C4.63479 20.9831 4.60764 20.9401 4.56863 20.9095C4.52963 20.8789 4.48117 20.8626 4.43147 20.8635ZM27.5646 20.8718C27.515 20.8711 27.4667 20.8874 27.4278 20.9179C27.3889 20.9484 27.3618 20.9914 27.3511 21.0394C27.3403 21.0875 27.3467 21.1378 27.3689 21.1818C27.3912 21.2257 27.4281 21.2607 27.4734 21.2809L28.4222 21.7033C28.4737 21.7228 28.5308 21.7219 28.5817 21.7009C28.6326 21.6799 28.6734 21.6403 28.6958 21.5903C28.7182 21.5403 28.7204 21.4837 28.7021 21.4321C28.6837 21.3805 28.6461 21.3379 28.597 21.313L27.6478 20.8902C27.6217 20.8783 27.5933 20.872 27.5646 20.8718ZM6.27999 21.335C6.23733 21.3319 6.19473 21.3417 6.15777 21.3631L4.01833 22.5963C3.97161 22.6258 3.93815 22.6721 3.92492 22.7255C3.91168 22.7788 3.91969 22.8352 3.94728 22.8829C3.97487 22.9306 4.01991 22.9658 4.07303 22.9814C4.12615 22.9969 4.18326 22.9915 4.23248 22.9663L6.37225 21.7337C6.41224 21.7109 6.44379 21.6759 6.46223 21.6339C6.48068 21.5919 6.48507 21.5452 6.47474 21.5005C6.46441 21.4559 6.43991 21.4157 6.40485 21.3859C6.36979 21.3561 6.32603 21.3383 6.27999 21.335ZM25.7195 21.335C25.6734 21.3383 25.6297 21.3561 25.5946 21.3859C25.5595 21.4157 25.535 21.4559 25.5247 21.5005C25.5144 21.5452 25.5188 21.5919 25.5372 21.6339C25.5557 21.6759 25.5872 21.7109 25.6272 21.7337L27.767 22.9663C27.7913 22.9805 27.8182 22.9898 27.8462 22.9935C27.8741 22.9973 27.9026 22.9955 27.9298 22.9882C27.9571 22.9809 27.9826 22.9683 28.0049 22.9511C28.0271 22.9339 28.0457 22.9125 28.0596 22.8881C28.0881 22.8391 28.0959 22.7809 28.0812 22.7262C28.0666 22.6715 28.0307 22.6248 27.9815 22.5963L25.8417 21.3631C25.8047 21.3417 25.7621 21.3319 25.7195 21.335ZM5.74631 23.1441C5.70357 23.1458 5.66231 23.1601 5.62779 23.1852L4.7867 23.7941C4.76379 23.8106 4.74438 23.8315 4.72958 23.8554C4.71478 23.8793 4.70488 23.906 4.70044 23.9337C4.696 23.9615 4.69711 23.9898 4.7037 24.0171C4.7103 24.0444 4.72225 24.0702 4.73888 24.0929C4.80858 24.1888 4.94225 24.2099 5.03822 24.1404L5.87931 23.5311C5.91664 23.5043 5.94432 23.4663 5.95827 23.4226C5.97223 23.379 5.97173 23.3322 5.95685 23.2889C5.94196 23.2455 5.91349 23.2081 5.87559 23.1821C5.8377 23.156 5.79238 23.1427 5.74631 23.1441ZM26.2481 23.1514C26.2022 23.1504 26.1572 23.164 26.1195 23.19C26.0819 23.2161 26.0536 23.2534 26.0388 23.2965C26.0239 23.3397 26.0233 23.3863 26.0369 23.4298C26.0506 23.4733 26.0778 23.5114 26.1148 23.5385L26.9555 24.1481C26.9782 24.1646 27.0041 24.1765 27.0315 24.1831C27.0589 24.1897 27.0873 24.1908 27.1152 24.1864C27.143 24.182 27.1697 24.1721 27.1937 24.1574C27.2176 24.1427 27.2384 24.1234 27.2548 24.1006C27.2884 24.0548 27.3022 23.9976 27.2933 23.9416C27.2844 23.8857 27.2535 23.8355 27.2074 23.8022L26.3666 23.1926C26.3322 23.1673 26.2909 23.153 26.2481 23.1514ZM7.6514 23.2253C7.62327 23.2238 7.59511 23.2279 7.56857 23.2373C7.54204 23.2467 7.51766 23.2613 7.49685 23.2801L5.65944 24.9284C5.61703 24.9664 5.5915 25.0195 5.58847 25.076C5.58544 25.1326 5.60515 25.1881 5.64328 25.2302C5.662 25.2512 5.68472 25.2682 5.71013 25.2803C5.73553 25.2925 5.7631 25.2995 5.79126 25.301C5.81941 25.3025 5.84758 25.2984 5.87414 25.289C5.9007 25.2796 5.92512 25.2651 5.94598 25.2463L7.78339 23.5979C7.81505 23.5697 7.83758 23.5328 7.84812 23.4919C7.85867 23.4509 7.85676 23.4078 7.84264 23.3679C7.82852 23.3281 7.80282 23.2932 7.76879 23.2679C7.73475 23.2425 7.69391 23.2277 7.6514 23.2253ZM24.343 23.231C24.3005 23.2333 24.2596 23.2481 24.2255 23.2734C24.1914 23.2988 24.1657 23.3336 24.1515 23.3735C24.1373 23.4133 24.1354 23.4565 24.1459 23.4975C24.1565 23.5384 24.179 23.5754 24.2107 23.6036L26.0471 25.2536C26.0679 25.2725 26.0924 25.287 26.1189 25.2964C26.1455 25.3058 26.1736 25.3098 26.2018 25.3084C26.23 25.3069 26.2575 25.2998 26.2829 25.2877C26.3083 25.2755 26.3311 25.2585 26.3498 25.2376C26.3879 25.1954 26.4076 25.14 26.4046 25.0834C26.4016 25.0268 26.376 24.9737 26.3336 24.9358L24.4976 23.2861C24.4554 23.2482 24.3998 23.2284 24.343 23.231ZM9.39454 24.7971C9.35944 24.7961 9.32461 24.8036 9.2931 24.819C9.26159 24.8343 9.23434 24.8571 9.21372 24.8853L7.7605 26.8792C7.72684 26.9251 7.7129 26.9823 7.72174 27.0383C7.73058 27.0943 7.76148 27.1446 7.80763 27.178C7.83029 27.1947 7.85606 27.2067 7.88344 27.2133C7.91082 27.22 7.93926 27.2211 7.96709 27.2167C7.99493 27.2123 8.02161 27.2025 8.04557 27.1878C8.06952 27.173 8.09028 27.1537 8.10663 27.1309L9.5602 25.137C9.58313 25.1057 9.59706 25.0687 9.60052 25.0301C9.60397 24.9915 9.59682 24.9527 9.57982 24.9179C9.56283 24.883 9.53662 24.8533 9.50399 24.8321C9.47136 24.8108 9.43353 24.7987 9.39454 24.7971ZM22.5928 24.8061C22.5538 24.8076 22.5159 24.8196 22.4832 24.8408C22.4505 24.862 22.4242 24.8916 22.4072 24.9265C22.3901 24.9614 22.383 25.0002 22.3864 25.0388C22.3899 25.0774 22.4038 25.1143 22.4268 25.1457L23.8777 27.1416C23.947 27.2375 24.0807 27.2586 24.1767 27.1891C24.2228 27.1557 24.2537 27.1055 24.2626 27.0496C24.2715 26.9936 24.2577 26.9365 24.2241 26.8906L22.7736 24.8947C22.7532 24.8662 22.726 24.8432 22.6945 24.8277C22.6629 24.8123 22.628 24.8049 22.5928 24.8061ZM7.5184 25.1143C7.46157 25.1174 7.40832 25.1428 7.37025 25.1848L6.67495 25.9558C6.63678 25.998 6.61701 26.0534 6.61998 26.11C6.62295 26.1665 6.64841 26.2196 6.69077 26.2576C6.71155 26.2765 6.73591 26.2911 6.76244 26.3006C6.78896 26.3101 6.81713 26.3142 6.84528 26.3127C6.87343 26.3113 6.901 26.3043 6.92639 26.2921C6.95178 26.2799 6.97447 26.2629 6.99314 26.2419L7.68878 25.4709C7.71718 25.4395 7.73559 25.4005 7.74171 25.3587C7.74784 25.317 7.74139 25.2744 7.72318 25.2363C7.70497 25.1982 7.67581 25.1663 7.63938 25.1446C7.60294 25.1228 7.56085 25.1123 7.5184 25.1143ZM24.4797 25.1153C24.4373 25.1135 24.3953 25.1241 24.359 25.1458C24.3227 25.1676 24.2936 25.1995 24.2754 25.2375C24.2572 25.2756 24.2508 25.3181 24.2568 25.3598C24.2628 25.4015 24.2811 25.4405 24.3093 25.4719L25.0046 26.2429C25.0234 26.2638 25.0461 26.2808 25.0715 26.2929C25.0969 26.305 25.1245 26.312 25.1527 26.3135C25.1808 26.3149 25.209 26.3108 25.2355 26.3014C25.2621 26.292 25.2865 26.2774 25.3073 26.2586C25.3497 26.2206 25.3752 26.1675 25.3781 26.111C25.3811 26.0544 25.3613 25.999 25.3232 25.9568L24.6279 25.1858C24.6091 25.1649 24.5864 25.1478 24.5609 25.1357C24.5355 25.1236 24.5079 25.1167 24.4797 25.1153ZM11.4242 25.9702C11.382 25.9692 11.3404 25.9808 11.3048 26.0034C11.2693 26.026 11.2413 26.0587 11.2245 26.0972L10.2178 28.3491C10.1945 28.4008 10.1928 28.4596 10.2131 28.5126C10.2335 28.5655 10.2741 28.6083 10.3262 28.6315C10.4346 28.6796 10.5609 28.6315 10.609 28.5232L11.6158 26.2713C11.6303 26.2391 11.6365 26.2039 11.634 26.1687C11.6315 26.1336 11.6202 26.0996 11.6013 26.0698C11.5823 26.04 11.5562 26.0153 11.5253 25.9979C11.4944 25.9806 11.4597 25.971 11.4242 25.9702ZM20.5614 25.9765C20.526 25.9773 20.4912 25.9869 20.4603 26.0042C20.4294 26.0215 20.4033 26.0462 20.3843 26.0759C20.3654 26.1057 20.3541 26.1396 20.3515 26.1748C20.3489 26.2099 20.3551 26.2451 20.3695 26.2773L21.3732 28.5306C21.3846 28.5562 21.4009 28.5793 21.4212 28.5987C21.4416 28.618 21.4656 28.6331 21.4919 28.6432C21.5182 28.6533 21.5463 28.6581 21.5744 28.6573C21.6026 28.6566 21.6304 28.6503 21.6561 28.6389C21.7081 28.6157 21.7488 28.573 21.7692 28.5201C21.7896 28.4673 21.788 28.4085 21.7648 28.3568L20.7611 26.1035C20.7444 26.065 20.7164 26.0324 20.6808 26.0098C20.6452 25.9871 20.6037 25.9756 20.5614 25.9765ZM9.65549 26.6667C9.62035 26.669 9.58635 26.6799 9.55655 26.6986C9.52675 26.7172 9.50208 26.7429 9.48477 26.7733L8.96524 27.6713C8.93665 27.7204 8.92886 27.7787 8.94357 27.8335C8.95828 27.8882 8.99429 27.935 9.04369 27.9634C9.06804 27.9775 9.09495 27.9867 9.12289 27.9903C9.15082 27.994 9.17922 27.9922 9.20643 27.9849C9.23364 27.9776 9.25913 27.9651 9.28142 27.948C9.30371 27.9309 9.32236 27.9095 9.33629 27.8852L9.85583 26.9869C9.87526 26.9533 9.88518 26.9152 9.88453 26.8766C9.88388 26.8379 9.87268 26.8001 9.85212 26.7673C9.83157 26.7345 9.80243 26.7077 9.7678 26.69C9.73318 26.6723 9.69436 26.6642 9.65549 26.6667ZM22.344 26.6667C22.3051 26.6644 22.2664 26.6725 22.2318 26.6903C22.1973 26.708 22.1682 26.7347 22.1476 26.7675C22.1271 26.8003 22.1159 26.838 22.1152 26.8766C22.1145 26.9152 22.1243 26.9533 22.1436 26.9869L22.6632 27.8852C22.6771 27.9095 22.6957 27.9309 22.718 27.948C22.7403 27.9651 22.7658 27.9776 22.793 27.9849C22.8202 27.9922 22.8486 27.994 22.8766 27.9903C22.9045 27.9867 22.9314 27.9775 22.9558 27.9634C23.0052 27.935 23.0412 27.8882 23.0559 27.8335C23.0706 27.7787 23.0628 27.7204 23.0342 27.6713L22.5147 26.7733C22.4974 26.7429 22.4727 26.7172 22.4429 26.6986C22.4131 26.6799 22.3791 26.669 22.344 26.6667ZM13.6653 26.6988C13.6159 26.6985 13.5678 26.7152 13.5294 26.7461C13.491 26.777 13.4645 26.8201 13.4546 26.8682L12.9411 29.2802C12.9292 29.3356 12.9399 29.3933 12.9708 29.4409C13.0017 29.4884 13.0504 29.5219 13.1061 29.5339C13.1336 29.5397 13.1621 29.5401 13.1898 29.535C13.2176 29.5299 13.244 29.5194 13.2676 29.504C13.2912 29.4887 13.3115 29.4689 13.3274 29.4457C13.3432 29.4226 13.3543 29.3965 13.3599 29.3691L13.8734 26.9571C13.8802 26.9262 13.8799 26.8941 13.8726 26.8633C13.8653 26.8324 13.8512 26.8036 13.8313 26.7788C13.8113 26.7541 13.7861 26.7341 13.7574 26.7202C13.7287 26.7064 13.6972 26.699 13.6653 26.6988ZM18.3267 26.7004C18.2949 26.7008 18.2635 26.7082 18.2349 26.722C18.2063 26.7358 18.1811 26.7558 18.1612 26.7804C18.1412 26.8051 18.1271 26.8338 18.1197 26.8645C18.1122 26.8952 18.1118 26.9272 18.1183 26.9581L18.6301 29.3708C18.6359 29.3981 18.6472 29.424 18.6631 29.447C18.679 29.47 18.6994 29.4896 18.723 29.5048C18.7466 29.52 18.7729 29.5304 18.8006 29.5355C18.8282 29.5406 18.8566 29.5402 18.8841 29.5344C18.9116 29.5286 18.9377 29.5174 18.9609 29.5016C18.984 29.4858 19.0038 29.4656 19.0192 29.4422C19.0345 29.4188 19.045 29.3926 19.0501 29.3651C19.0552 29.3377 19.0548 29.3095 19.0489 29.2822L18.5372 26.8699C18.5275 26.8217 18.5012 26.7784 18.4627 26.7475C18.4243 26.7165 18.3762 26.6999 18.3267 26.7004ZM15.9997 26.9437C15.9715 26.9437 15.9436 26.9493 15.9175 26.96C15.8915 26.9708 15.8678 26.9865 15.8479 27.0064C15.828 27.0262 15.8123 27.0497 15.8016 27.0756C15.7909 27.1016 15.7854 27.1293 15.7856 27.1573V29.6231C15.7839 29.652 15.7883 29.681 15.7983 29.7082C15.8083 29.7354 15.8238 29.7603 15.8439 29.7813C15.8639 29.8023 15.8881 29.8191 15.9149 29.8306C15.9417 29.842 15.9705 29.8479 15.9997 29.8479C16.0289 29.8479 16.0578 29.842 16.0846 29.8306C16.1114 29.8191 16.1355 29.8023 16.1556 29.7813C16.1756 29.7603 16.1911 29.7354 16.2012 29.7082C16.2112 29.681 16.2155 29.652 16.2139 29.6231V27.1573C16.214 27.1293 16.2086 27.1016 16.1979 27.0756C16.1872 27.0497 16.1714 27.0262 16.1515 27.0064C16.1316 26.9865 16.108 26.9708 16.0819 26.96C16.0559 26.9493 16.0279 26.9437 15.9997 26.9437ZM12.0677 27.7405C12.0257 27.7443 11.9858 27.7603 11.9529 27.7865C11.9199 27.8126 11.8955 27.8477 11.8825 27.8876L11.5612 28.8742C11.5436 28.928 11.5481 28.9865 11.5739 29.037C11.5996 29.0875 11.6445 29.1258 11.6986 29.1435C11.7254 29.1522 11.7537 29.1555 11.7818 29.1533C11.81 29.1511 11.8373 29.1434 11.8624 29.1306C11.8875 29.1179 11.9099 29.1003 11.9281 29.0789C11.9463 29.0576 11.9601 29.0328 11.9687 29.0061L12.2899 28.0196C12.3008 27.9861 12.3032 27.9505 12.2969 27.9158C12.2907 27.8812 12.2759 27.8487 12.2539 27.8211C12.2319 27.7935 12.2034 27.7717 12.171 27.7576C12.1385 27.7436 12.103 27.7377 12.0677 27.7405ZM19.9301 27.7408C19.8947 27.738 19.8592 27.7439 19.8267 27.758C19.7942 27.772 19.7656 27.7939 19.7437 27.8215C19.7217 27.8491 19.7069 27.8817 19.7007 27.9164C19.6944 27.9511 19.6969 27.9868 19.7079 28.0202L20.0291 29.0065C20.0658 29.1191 20.186 29.1803 20.2988 29.1439C20.353 29.1262 20.3979 29.0879 20.4238 29.0374C20.4496 28.9869 20.4542 28.9283 20.4365 28.8745L20.1153 27.8879C20.1023 27.8481 20.0778 27.8129 20.0449 27.7868C20.012 27.7607 19.9721 27.7447 19.9301 27.7408ZM14.6553 28.2903C14.6061 28.2954 14.5602 28.3171 14.5253 28.3518C14.4903 28.3864 14.4685 28.432 14.4633 28.4808L14.3546 29.5125C14.3486 29.5685 14.3654 29.6247 14.4011 29.6685C14.4369 29.7123 14.4887 29.7402 14.5451 29.7461C14.6016 29.752 14.6582 29.7354 14.7023 29.6999C14.7464 29.6644 14.7746 29.613 14.7805 29.5569L14.8893 28.5256C14.8927 28.4941 14.889 28.4623 14.8786 28.4324C14.8681 28.4025 14.851 28.3753 14.8286 28.3527C14.8062 28.3302 14.779 28.3129 14.749 28.3021C14.719 28.2913 14.687 28.2873 14.6553 28.2903ZM17.3358 28.2913C17.304 28.2882 17.272 28.2921 17.2419 28.3028C17.2119 28.3136 17.1847 28.3308 17.1622 28.3534C17.1398 28.3759 17.1227 28.4031 17.1122 28.433C17.1016 28.4629 17.098 28.4947 17.1014 28.5262L17.2092 29.5579C17.2121 29.5857 17.2205 29.6126 17.234 29.6372C17.2474 29.6618 17.2656 29.6834 17.2874 29.701C17.3093 29.7186 17.3345 29.7317 17.3614 29.7397C17.3884 29.7476 17.4167 29.7502 17.4447 29.7473C17.4727 29.7444 17.4998 29.736 17.5246 29.7227C17.5493 29.7093 17.5711 29.6913 17.5889 29.6696C17.6066 29.6479 17.6198 29.6229 17.6278 29.5961C17.6358 29.5694 17.6384 29.5413 17.6355 29.5135L17.5274 28.4821C17.5226 28.4332 17.5009 28.3875 17.4659 28.3527C17.431 28.3179 17.385 28.2962 17.3358 28.2913Z" fill="#F4F2F3"/>
<g opacity="0.409" filter="url(#filter0_f_136_2887)">
<path d="M26.0392 7.38745L14.3197 14.183L6.91016 25.8252L17.7498 17.8118L26.0392 7.38745Z" fill="black"/>
</g>
<path d="M17.6793 17.6938L14.3203 14.1829L26.2364 6.18262L17.6793 17.6938Z" fill="#FF5150"/>
<path d="M17.6793 17.6937L14.3203 14.1829L5.76318 25.6941L17.6793 17.6937Z" fill="#F1F1F1"/>
<path opacity="0.243" d="M5.76318 25.6942L17.6793 17.6938L26.2363 6.18262L5.76318 25.6942Z" fill="black"/>
</g>
</g>
<defs>
<filter id="filter0_f_136_2887" x="4.36616" y="4.84345" width="24.2169" height="23.5257" filterUnits="userSpaceOnUse" color-interpolation-filters="sRGB">
<feFlood flood-opacity="0" result="BackgroundImageFix"/>
<feBlend mode="normal" in="SourceGraphic" in2="BackgroundImageFix" result="shape"/>
<feGaussianBlur stdDeviation="1.272" result="effect1_foregroundBlur_136_2887"/>
</filter>
<linearGradient id="paint0_linear_136_2887" x1="15.9992" y1="31.848" x2="15.9992" y2="0.0288086" gradientUnits="userSpaceOnUse">
<stop stop-color="#BDBDBD"/>
<stop offset="1" stop-color="white"/>
</linearGradient>
<radialGradient id="paint1_radial_136_2887" cx="0" cy="0" r="1" gradientUnits="userSpaceOnUse" gradientTransform="translate(16.0661 13.8003) scale(15.9408 15.9097)">
<stop stop-color="#06C2E7"/>
<stop offset="0.25" stop-color="#0DB8EC"/>
<stop offset="0.5" stop-color="#12AEF1"/>
<stop offset="0.75" stop-color="#1F86F9"/>
<stop offset="1" stop-color="#107DDD"/>
</radialGradient>
<clipPath id="clip0_136_2887">
<rect width="32" height="32" fill="white"/>
</clipPath>
</defs>
</svg>
